# xmcd
#
# Track frame offsets: 
#        150
#        17587
#        32924
#        49611
#        67648
#        81485
#        95397
#        112459
#        128171
#        144633
#        161470
#        177932
#        192519
#        210331
#        221618
#        235830
#        247942
#        265304
#
# Disc length: 3737 seconds
#
# Revision: 3
# Processed by: cddbd v1.5.2PL0 Copyright (c) Steve Scherf et al.
# Submitted via: ExactAudioCopy v0.99pb5
#
DISCID=fc0e9712
DTITLE=Various Artist - 201002 PO Country Radio
DYEAR=2010
DGENRE=Country
TTITLE0=Trace Adkins - Ala Freakin Bama
TTITLE1=Alan Jackson - It's Just That Way
TTITLE2=Blake Shelton f Trace Adkins - Hillbilly Bone
TTITLE3=Taylor Swift - Fearless
TTITLE4=Love And Theft - Dancing In Circles
TTITLE5=Danny Gokey - My Best Days Are Ahead Of Me
TTITLE6=Rascal Flatts - Unstoppable
TTITLE7=Lady Antebellum - American Honey
TTITLE8=Colt Ford f Jamey Johnson - Cold Beer @
TTITLE9=Billy Currington - That's How Country Boys Roll
TTITLE10=Jessica Harp - A Woman Needs
TTITLE11=Burns And Poe - Don't Get No Better Than That @
TTITLE12=Gary Allan - Today
TTITLE13=Cledus T Judd - Tiger By The Tail (The Tale Of Tiger Woods) @
TTITLE14=Gretchen Wilson - Work Hard, Play Harder
TTITLE15=Carter's Chord - You Knock Me Out
TTITLE16=Darryl Worley - Best Of Both Worlds
TTITLE17=McClymonts - My Life Again
EXTD=
EXTT0=
EXTT1=
EXTT2=
EXTT3=
EXTT4=
EXTT5=
EXTT6=
EXTT7=
EXTT8=
EXTT9=
EXTT10=
EXTT11=
EXTT12=
EXTT13=
EXTT14=
EXTT15=
EXTT16=
EXTT17=
PLAYORDER=
